<svg width="24" height="24" viewBox="0 0 24 24" fill="none" xmlns="http://www.w3.org/2000/svg">
<g clip-path="url(#clip0_80_6)">
<path fill-rule="evenodd" clip-rule="evenodd" d="M17.9976 13.2H17.97C16.6788 13.2 15.6 14.382 15.6 15.6732V16.8H8.4V15.7078C8.4 14.461 7.4016 13.3657 6.156 13.4221C4.5036 13.4953 3.0324 12.4511 2.5728 10.9535C1.3956 7.11472 6.2664 4.53016 8.7624 7.54336C6.6912 3.22216 13.2792 0.160519 15.2688 4.51172C15.4921 4.9867 15.6053 5.50624 15.6001 6.03105C15.5949 6.55587 15.4714 7.07289 15.2388 7.54336C16.5696 5.93536 19.6776 5.63891 20.8392 7.37051C22.7688 10.2457 20.7312 13.2 17.9976 13.2ZM15.6 20.4C15.6 20.7183 15.4736 21.0234 15.2485 21.2484C15.0235 21.4735 14.7183 21.6 14.4 21.6H9.6C9.28174 21.6 8.97651 21.4735 8.75147 21.2484C8.52643 21.0234 8.4 20.7183 8.4 20.4V19.2H15.6V20.4ZM17.592 3.8666C17.1618 2.73119 16.3966 1.75341 15.3979 1.06289C14.3992 0.37237 13.2142 0.00153122 12 0C10.7858 0.00153122 9.60079 0.37237 8.60209 1.06289C7.60338 1.75341 6.83819 2.73119 6.408 3.8666C2.7528 3.6158 0 6.50161 0 9.82441C1.7678e-05 11.2389 0.499701 12.6079 1.41086 13.6898C2.32203 14.7718 3.5861 15.4976 4.98 15.7383C5.5632 15.8391 6 16.3261 6 16.9189V21.6C6 22.2365 6.25285 22.8468 6.70294 23.2969C7.15303 23.747 7.76348 24 8.4 24H15.6C16.2365 24 16.847 23.747 17.2971 23.2969C17.7471 22.8468 18 22.2365 18 21.6V16.9189C18 16.3261 18.4368 15.8391 19.02 15.7383C20.4139 15.4976 21.678 14.7718 22.5891 13.6898C23.5003 12.6079 24 11.2389 24 9.82441C24 6.50761 21.252 3.6146 17.592 3.8666Z" fill="black"/>
</g>
<defs>
<clipPath id="clip0_80_6">
<rect width="24" height="24" fill="white"/>
</clipPath>
</defs>
</svg>
